<mxfile host="app.diagrams.net" agent="Mozilla/5.0 (Macintosh; Intel Mac OS X 10_15_7) AppleWebKit/537.36 (KHTML, like Gecko) Chrome/138.0.0.0 Safari/537.36" version="28.0.7" pages="2">
  <diagram name="Page-1" id="AnCuaHJbZtOOJr9N0j1-">
    <mxGraphModel dx="1404" dy="766" grid="1" gridSize="10" guides="1" tooltips="1" connect="1" arrows="1" fold="1" page="1" pageScale="1" pageWidth="1400" pageHeight="850" math="0" shadow="0">
      <root>
        <mxCell id="0" />
        <mxCell id="1" parent="0" />
        <mxCell id="lj193RAks6qg75Y_UiIa-2" value="" style="rounded=0;whiteSpace=wrap;html=1;movable=0;resizable=0;rotatable=0;deletable=0;editable=0;locked=1;connectable=0;" parent="1" vertex="1">
          <mxGeometry x="400" y="40" width="670" height="1130" as="geometry" />
        </mxCell>
        <mxCell id="lj193RAks6qg75Y_UiIa-94" style="edgeStyle=orthogonalEdgeStyle;rounded=0;orthogonalLoop=1;jettySize=auto;html=1;entryX=1;entryY=0.5;entryDx=0;entryDy=0;" parent="1" source="lj193RAks6qg75Y_UiIa-3" target="lj193RAks6qg75Y_UiIa-47" edge="1">
          <mxGeometry relative="1" as="geometry" />
        </mxCell>
        <mxCell id="lj193RAks6qg75Y_UiIa-95" style="edgeStyle=orthogonalEdgeStyle;rounded=0;orthogonalLoop=1;jettySize=auto;html=1;entryX=1;entryY=0.5;entryDx=0;entryDy=0;" parent="1" source="lj193RAks6qg75Y_UiIa-3" target="lj193RAks6qg75Y_UiIa-20" edge="1">
          <mxGeometry relative="1" as="geometry" />
        </mxCell>
        <mxCell id="lj193RAks6qg75Y_UiIa-96" style="edgeStyle=orthogonalEdgeStyle;rounded=0;orthogonalLoop=1;jettySize=auto;html=1;entryX=1;entryY=0.5;entryDx=0;entryDy=0;" parent="1" source="lj193RAks6qg75Y_UiIa-3" target="lj193RAks6qg75Y_UiIa-44" edge="1">
          <mxGeometry relative="1" as="geometry" />
        </mxCell>
        <mxCell id="lj193RAks6qg75Y_UiIa-97" style="edgeStyle=orthogonalEdgeStyle;rounded=0;orthogonalLoop=1;jettySize=auto;html=1;entryX=1;entryY=0.5;entryDx=0;entryDy=0;" parent="1" source="lj193RAks6qg75Y_UiIa-3" target="lj193RAks6qg75Y_UiIa-43" edge="1">
          <mxGeometry relative="1" as="geometry" />
        </mxCell>
        <mxCell id="lj193RAks6qg75Y_UiIa-98" style="edgeStyle=orthogonalEdgeStyle;rounded=0;orthogonalLoop=1;jettySize=auto;html=1;entryX=1;entryY=0.5;entryDx=0;entryDy=0;" parent="1" source="lj193RAks6qg75Y_UiIa-3" target="lj193RAks6qg75Y_UiIa-21" edge="1">
          <mxGeometry relative="1" as="geometry" />
        </mxCell>
        <mxCell id="lj193RAks6qg75Y_UiIa-99" style="edgeStyle=orthogonalEdgeStyle;rounded=0;orthogonalLoop=1;jettySize=auto;html=1;entryX=1;entryY=0.5;entryDx=0;entryDy=0;" parent="1" source="lj193RAks6qg75Y_UiIa-3" target="lj193RAks6qg75Y_UiIa-23" edge="1">
          <mxGeometry relative="1" as="geometry" />
        </mxCell>
        <mxCell id="lj193RAks6qg75Y_UiIa-100" style="edgeStyle=orthogonalEdgeStyle;rounded=0;orthogonalLoop=1;jettySize=auto;html=1;entryX=1;entryY=0.5;entryDx=0;entryDy=0;" parent="1" source="lj193RAks6qg75Y_UiIa-3" target="lj193RAks6qg75Y_UiIa-41" edge="1">
          <mxGeometry relative="1" as="geometry" />
        </mxCell>
        <mxCell id="lj193RAks6qg75Y_UiIa-101" style="edgeStyle=orthogonalEdgeStyle;rounded=0;orthogonalLoop=1;jettySize=auto;html=1;entryX=1;entryY=0.5;entryDx=0;entryDy=0;" parent="1" source="lj193RAks6qg75Y_UiIa-3" target="lj193RAks6qg75Y_UiIa-45" edge="1">
          <mxGeometry relative="1" as="geometry" />
        </mxCell>
        <mxCell id="lj193RAks6qg75Y_UiIa-3" value="Practice Admin&lt;div&gt;&lt;br&gt;&lt;/div&gt;" style="shape=umlActor;verticalLabelPosition=bottom;verticalAlign=top;html=1;outlineConnect=0;" parent="1" vertex="1">
          <mxGeometry x="1270" y="475" width="30" height="60" as="geometry" />
        </mxCell>
        <mxCell id="lj193RAks6qg75Y_UiIa-6" value="Dentiverse Web Portal" style="text;align=center;fontStyle=1;verticalAlign=middle;spacingLeft=3;spacingRight=3;strokeColor=none;rotatable=0;points=[[0,0.5],[1,0.5]];portConstraint=eastwest;html=1;fontSize=18;" parent="1" vertex="1">
          <mxGeometry x="700" y="60" width="80" height="26" as="geometry" />
        </mxCell>
        <mxCell id="lj193RAks6qg75Y_UiIa-88" style="rounded=0;orthogonalLoop=1;jettySize=auto;html=1;entryX=0;entryY=0.5;entryDx=0;entryDy=0;" parent="1" source="lj193RAks6qg75Y_UiIa-72" target="lj193RAks6qg75Y_UiIa-22" edge="1">
          <mxGeometry relative="1" as="geometry" />
        </mxCell>
        <mxCell id="lj193RAks6qg75Y_UiIa-89" style="rounded=0;orthogonalLoop=1;jettySize=auto;html=1;" parent="1" source="lj193RAks6qg75Y_UiIa-72" target="lj193RAks6qg75Y_UiIa-49" edge="1">
          <mxGeometry relative="1" as="geometry" />
        </mxCell>
        <mxCell id="lj193RAks6qg75Y_UiIa-72" value="&lt;div&gt;Dentiverse System&lt;/div&gt;" style="shape=umlActor;verticalLabelPosition=bottom;verticalAlign=top;html=1;outlineConnect=0;" parent="1" vertex="1">
          <mxGeometry x="270" y="945" width="30" height="60" as="geometry" />
        </mxCell>
        <mxCell id="lj193RAks6qg75Y_UiIa-85" style="rounded=0;orthogonalLoop=1;jettySize=auto;html=1;entryX=0;entryY=0.5;entryDx=0;entryDy=0;" parent="1" source="lj193RAks6qg75Y_UiIa-73" target="lj193RAks6qg75Y_UiIa-48" edge="1">
          <mxGeometry relative="1" as="geometry" />
        </mxCell>
        <mxCell id="lj193RAks6qg75Y_UiIa-86" style="rounded=0;orthogonalLoop=1;jettySize=auto;html=1;entryX=0;entryY=0.5;entryDx=0;entryDy=0;" parent="1" source="lj193RAks6qg75Y_UiIa-73" target="lj193RAks6qg75Y_UiIa-10" edge="1">
          <mxGeometry relative="1" as="geometry" />
        </mxCell>
        <mxCell id="lj193RAks6qg75Y_UiIa-73" value="&lt;div&gt;Payment Provider&lt;/div&gt;" style="shape=umlActor;verticalLabelPosition=bottom;verticalAlign=top;html=1;outlineConnect=0;" parent="1" vertex="1">
          <mxGeometry x="230" y="120" width="30" height="60" as="geometry" />
        </mxCell>
        <mxCell id="lj193RAks6qg75Y_UiIa-32" style="rounded=0;orthogonalLoop=1;jettySize=auto;html=1;entryX=0;entryY=0.5;entryDx=0;entryDy=0;dashed=1;" parent="1" source="lj193RAks6qg75Y_UiIa-10" target="lj193RAks6qg75Y_UiIa-20" edge="1">
          <mxGeometry relative="1" as="geometry" />
        </mxCell>
        <mxCell id="lj193RAks6qg75Y_UiIa-33" value="&lt;p style=&quot;white-space: pre-wrap;&quot; dir=&quot;auto&quot;&gt;&lt;br&gt;&lt;/p&gt;" style="edgeLabel;html=1;align=center;verticalAlign=middle;resizable=0;points=[];" parent="lj193RAks6qg75Y_UiIa-32" vertex="1" connectable="0">
          <mxGeometry x="-0.1048" y="3" relative="1" as="geometry">
            <mxPoint as="offset" />
          </mxGeometry>
        </mxCell>
        <mxCell id="lj193RAks6qg75Y_UiIa-34" value="&amp;lt;&amp;lt;extends&amp;gt;&amp;gt;" style="edgeLabel;html=1;align=center;verticalAlign=middle;resizable=0;points=[];" parent="lj193RAks6qg75Y_UiIa-32" vertex="1" connectable="0">
          <mxGeometry x="-0.2819" y="-1" relative="1" as="geometry">
            <mxPoint x="22" as="offset" />
          </mxGeometry>
        </mxCell>
        <mxCell id="lj193RAks6qg75Y_UiIa-10" value="Configure Billing Method" style="ellipse;whiteSpace=wrap;html=1;" parent="1" vertex="1">
          <mxGeometry x="480" y="220" width="140" height="70" as="geometry" />
        </mxCell>
        <mxCell id="lj193RAks6qg75Y_UiIa-11" value="&lt;p style=&quot;white-space-collapse: preserve;&quot; dir=&quot;auto&quot;&gt;Complete Practice Culture Survey&lt;/p&gt;" style="ellipse;whiteSpace=wrap;html=1;" parent="1" vertex="1">
          <mxGeometry x="480" y="1060" width="140" height="70" as="geometry" />
        </mxCell>
        <mxCell id="lj193RAks6qg75Y_UiIa-12" value="&lt;p style=&quot;white-space-collapse: preserve;&quot; dir=&quot;auto&quot;&gt;Manage Rota Template&lt;/p&gt;" style="ellipse;whiteSpace=wrap;html=1;" parent="1" vertex="1">
          <mxGeometry x="480" y="400" width="140" height="70" as="geometry" />
        </mxCell>
        <mxCell id="lj193RAks6qg75Y_UiIa-13" value="&lt;p style=&quot;white-space-collapse: preserve;&quot; dir=&quot;auto&quot;&gt;View Calendar&lt;/p&gt;" style="ellipse;whiteSpace=wrap;html=1;" parent="1" vertex="1">
          <mxGeometry x="480" y="685" width="140" height="70" as="geometry" />
        </mxCell>
        <mxCell id="lj193RAks6qg75Y_UiIa-14" value="&lt;p style=&quot;white-space-collapse: preserve;&quot; dir=&quot;auto&quot;&gt;View Shift History&lt;/p&gt;" style="ellipse;whiteSpace=wrap;html=1;" parent="1" vertex="1">
          <mxGeometry x="475" y="500" width="140" height="70" as="geometry" />
        </mxCell>
        <mxCell id="lj193RAks6qg75Y_UiIa-20" value="&lt;p style=&quot;white-space-collapse: preserve;&quot; dir=&quot;auto&quot;&gt;Create Shift&lt;/p&gt;" style="ellipse;whiteSpace=wrap;html=1;" parent="1" vertex="1">
          <mxGeometry x="860" y="250" width="140" height="70" as="geometry" />
        </mxCell>
        <mxCell id="lj193RAks6qg75Y_UiIa-21" value="&lt;p style=&quot;white-space-collapse: preserve;&quot; dir=&quot;auto&quot;&gt;Manage Shift Status&lt;/p&gt;" style="ellipse;whiteSpace=wrap;html=1;" parent="1" vertex="1">
          <mxGeometry x="860" y="570" width="140" height="70" as="geometry" />
        </mxCell>
        <mxCell id="lj193RAks6qg75Y_UiIa-22" value="&lt;p style=&quot;white-space-collapse: preserve;&quot; dir=&quot;auto&quot;&gt;Handle Late-Alert&lt;/p&gt;" style="ellipse;whiteSpace=wrap;html=1;" parent="1" vertex="1">
          <mxGeometry x="480" y="870" width="140" height="70" as="geometry" />
        </mxCell>
        <mxCell id="lj193RAks6qg75Y_UiIa-23" value="&lt;p style=&quot;white-space-collapse: preserve;&quot; dir=&quot;auto&quot;&gt;Blacklist Nurse&lt;/p&gt;" style="ellipse;whiteSpace=wrap;html=1;" parent="1" vertex="1">
          <mxGeometry x="860" y="705" width="140" height="70" as="geometry" />
        </mxCell>
        <mxCell id="lj193RAks6qg75Y_UiIa-24" value="&lt;p style=&quot;white-space-collapse: preserve;&quot; dir=&quot;auto&quot;&gt;Edit/Repost Shift&lt;/p&gt;" style="ellipse;whiteSpace=wrap;html=1;" parent="1" vertex="1">
          <mxGeometry x="480" y="310" width="140" height="70" as="geometry" />
        </mxCell>
        <mxCell id="lj193RAks6qg75Y_UiIa-35" style="rounded=0;orthogonalLoop=1;jettySize=auto;html=1;entryX=0.072;entryY=0.821;entryDx=0;entryDy=0;entryPerimeter=0;exitX=1.001;exitY=0.393;exitDx=0;exitDy=0;exitPerimeter=0;" parent="1" source="lj193RAks6qg75Y_UiIa-12" target="lj193RAks6qg75Y_UiIa-20" edge="1">
          <mxGeometry relative="1" as="geometry">
            <mxPoint x="710" y="460" as="sourcePoint" />
            <mxPoint x="640" y="440.97" as="targetPoint" />
          </mxGeometry>
        </mxCell>
        <mxCell id="lj193RAks6qg75Y_UiIa-36" value="&lt;p style=&quot;white-space: pre-wrap;&quot; dir=&quot;auto&quot;&gt;&lt;br&gt;&lt;/p&gt;" style="edgeLabel;html=1;align=center;verticalAlign=middle;resizable=0;points=[];" parent="lj193RAks6qg75Y_UiIa-35" vertex="1" connectable="0">
          <mxGeometry x="-0.1048" y="3" relative="1" as="geometry">
            <mxPoint as="offset" />
          </mxGeometry>
        </mxCell>
        <mxCell id="lj193RAks6qg75Y_UiIa-37" value="&amp;lt;&amp;lt;includes&amp;gt;&amp;gt;" style="edgeLabel;html=1;align=center;verticalAlign=middle;resizable=0;points=[];" parent="lj193RAks6qg75Y_UiIa-35" vertex="1" connectable="0">
          <mxGeometry x="-0.2819" y="-1" relative="1" as="geometry">
            <mxPoint x="19" y="-13" as="offset" />
          </mxGeometry>
        </mxCell>
        <mxCell id="lj193RAks6qg75Y_UiIa-38" style="rounded=0;orthogonalLoop=1;jettySize=auto;html=1;entryX=1;entryY=0.5;entryDx=0;entryDy=0;exitX=0.014;exitY=0.6;exitDx=0;exitDy=0;exitPerimeter=0;" parent="1" source="lj193RAks6qg75Y_UiIa-21" target="lj193RAks6qg75Y_UiIa-13" edge="1">
          <mxGeometry relative="1" as="geometry">
            <mxPoint x="870" y="550" as="sourcePoint" />
            <mxPoint x="626" y="621" as="targetPoint" />
          </mxGeometry>
        </mxCell>
        <mxCell id="lj193RAks6qg75Y_UiIa-39" value="&lt;p style=&quot;white-space: pre-wrap;&quot; dir=&quot;auto&quot;&gt;&lt;br&gt;&lt;/p&gt;" style="edgeLabel;html=1;align=center;verticalAlign=middle;resizable=0;points=[];" parent="lj193RAks6qg75Y_UiIa-38" vertex="1" connectable="0">
          <mxGeometry x="-0.1048" y="3" relative="1" as="geometry">
            <mxPoint as="offset" />
          </mxGeometry>
        </mxCell>
        <mxCell id="lj193RAks6qg75Y_UiIa-40" value="&amp;lt;&amp;lt;includes&amp;gt;&amp;gt;" style="edgeLabel;html=1;align=center;verticalAlign=middle;resizable=0;points=[];" parent="lj193RAks6qg75Y_UiIa-38" vertex="1" connectable="0">
          <mxGeometry x="-0.2819" y="-1" relative="1" as="geometry">
            <mxPoint x="-41" y="17" as="offset" />
          </mxGeometry>
        </mxCell>
        <mxCell id="lj193RAks6qg75Y_UiIa-41" value="&lt;p style=&quot;white-space-collapse: preserve;&quot; dir=&quot;auto&quot;&gt;Cancel Shift&lt;/p&gt;" style="ellipse;whiteSpace=wrap;html=1;" parent="1" vertex="1">
          <mxGeometry x="860" y="820" width="140" height="70" as="geometry" />
        </mxCell>
        <mxCell id="lj193RAks6qg75Y_UiIa-42" value="&lt;p style=&quot;white-space-collapse: preserve;&quot; dir=&quot;auto&quot;&gt;Approve Timesheet&lt;/p&gt;" style="ellipse;whiteSpace=wrap;html=1;" parent="1" vertex="1">
          <mxGeometry x="475" y="590" width="140" height="70" as="geometry" />
        </mxCell>
        <mxCell id="lj193RAks6qg75Y_UiIa-43" value="&lt;p style=&quot;white-space-collapse: preserve;&quot; dir=&quot;auto&quot;&gt;Review Overtime&lt;/p&gt;" style="ellipse;whiteSpace=wrap;html=1;" parent="1" vertex="1">
          <mxGeometry x="860" y="470" width="140" height="70" as="geometry" />
        </mxCell>
        <mxCell id="lj193RAks6qg75Y_UiIa-44" value="&lt;p style=&quot;white-space-collapse: preserve;&quot; dir=&quot;auto&quot;&gt;Rate Nurse&lt;/p&gt;" style="ellipse;whiteSpace=wrap;html=1;" parent="1" vertex="1">
          <mxGeometry x="860" y="360" width="140" height="70" as="geometry" />
        </mxCell>
        <mxCell id="lj193RAks6qg75Y_UiIa-45" value="&lt;p style=&quot;white-space-collapse: preserve;&quot; dir=&quot;auto&quot;&gt;Handle Disputes&lt;/p&gt;" style="ellipse;whiteSpace=wrap;html=1;" parent="1" vertex="1">
          <mxGeometry x="860" y="940" width="140" height="70" as="geometry" />
        </mxCell>
        <mxCell id="lj193RAks6qg75Y_UiIa-46" value="&lt;p style=&quot;white-space-collapse: preserve;&quot; dir=&quot;auto&quot;&gt;View Historical Attendance Logs&lt;/p&gt;" style="ellipse;whiteSpace=wrap;html=1;" parent="1" vertex="1">
          <mxGeometry x="480" y="775" width="140" height="70" as="geometry" />
        </mxCell>
        <mxCell id="lj193RAks6qg75Y_UiIa-47" value="&lt;p style=&quot;white-space-collapse: preserve;&quot; dir=&quot;auto&quot;&gt;View Spend Dashboard&lt;/p&gt;" style="ellipse;whiteSpace=wrap;html=1;" parent="1" vertex="1">
          <mxGeometry x="860" y="150" width="140" height="70" as="geometry" />
        </mxCell>
        <mxCell id="lj193RAks6qg75Y_UiIa-48" value="&lt;p style=&quot;white-space-collapse: preserve;&quot; dir=&quot;auto&quot;&gt;Download Invoice&lt;/p&gt;" style="ellipse;whiteSpace=wrap;html=1;" parent="1" vertex="1">
          <mxGeometry x="480" y="130" width="140" height="70" as="geometry" />
        </mxCell>
        <mxCell id="lj193RAks6qg75Y_UiIa-49" value="&lt;p style=&quot;white-space-collapse: preserve;&quot; dir=&quot;auto&quot;&gt;Receive Notifications&lt;/p&gt;" style="ellipse;whiteSpace=wrap;html=1;" parent="1" vertex="1">
          <mxGeometry x="480" y="970" width="140" height="70" as="geometry" />
        </mxCell>
        <mxCell id="lj193RAks6qg75Y_UiIa-50" style="rounded=0;orthogonalLoop=1;jettySize=auto;html=1;entryX=0;entryY=0.5;entryDx=0;entryDy=0;dashed=1;exitX=1;exitY=0.5;exitDx=0;exitDy=0;" parent="1" source="lj193RAks6qg75Y_UiIa-14" target="lj193RAks6qg75Y_UiIa-44" edge="1">
          <mxGeometry relative="1" as="geometry">
            <mxPoint x="635" y="540" as="sourcePoint" />
            <mxPoint x="876" y="559" as="targetPoint" />
          </mxGeometry>
        </mxCell>
        <mxCell id="lj193RAks6qg75Y_UiIa-51" value="&lt;p style=&quot;white-space: pre-wrap;&quot; dir=&quot;auto&quot;&gt;&lt;br&gt;&lt;/p&gt;" style="edgeLabel;html=1;align=center;verticalAlign=middle;resizable=0;points=[];" parent="lj193RAks6qg75Y_UiIa-50" vertex="1" connectable="0">
          <mxGeometry x="-0.1048" y="3" relative="1" as="geometry">
            <mxPoint as="offset" />
          </mxGeometry>
        </mxCell>
        <mxCell id="lj193RAks6qg75Y_UiIa-52" value="&amp;lt;&amp;lt;extends&amp;gt;&amp;gt;" style="edgeLabel;html=1;align=center;verticalAlign=middle;resizable=0;points=[];" parent="lj193RAks6qg75Y_UiIa-50" vertex="1" connectable="0">
          <mxGeometry x="-0.2819" y="-1" relative="1" as="geometry">
            <mxPoint x="22" as="offset" />
          </mxGeometry>
        </mxCell>
        <mxCell id="lj193RAks6qg75Y_UiIa-53" style="rounded=0;orthogonalLoop=1;jettySize=auto;html=1;entryX=0.043;entryY=0.686;entryDx=0;entryDy=0;dashed=1;exitX=1;exitY=0.5;exitDx=0;exitDy=0;entryPerimeter=0;" parent="1" source="lj193RAks6qg75Y_UiIa-24" target="lj193RAks6qg75Y_UiIa-20" edge="1">
          <mxGeometry relative="1" as="geometry">
            <mxPoint x="629" y="276" as="sourcePoint" />
            <mxPoint x="870" y="295" as="targetPoint" />
          </mxGeometry>
        </mxCell>
        <mxCell id="lj193RAks6qg75Y_UiIa-54" value="&lt;p style=&quot;white-space: pre-wrap;&quot; dir=&quot;auto&quot;&gt;&lt;br&gt;&lt;/p&gt;" style="edgeLabel;html=1;align=center;verticalAlign=middle;resizable=0;points=[];" parent="lj193RAks6qg75Y_UiIa-53" vertex="1" connectable="0">
          <mxGeometry x="-0.1048" y="3" relative="1" as="geometry">
            <mxPoint as="offset" />
          </mxGeometry>
        </mxCell>
        <mxCell id="lj193RAks6qg75Y_UiIa-55" value="&amp;lt;&amp;lt;extends&amp;gt;&amp;gt;" style="edgeLabel;html=1;align=center;verticalAlign=middle;resizable=0;points=[];" parent="lj193RAks6qg75Y_UiIa-53" vertex="1" connectable="0">
          <mxGeometry x="-0.2819" y="-1" relative="1" as="geometry">
            <mxPoint x="22" as="offset" />
          </mxGeometry>
        </mxCell>
        <mxCell id="lj193RAks6qg75Y_UiIa-56" style="rounded=0;orthogonalLoop=1;jettySize=auto;html=1;entryX=0;entryY=0.5;entryDx=0;entryDy=0;dashed=1;exitX=1;exitY=0.5;exitDx=0;exitDy=0;" parent="1" source="lj193RAks6qg75Y_UiIa-22" target="lj193RAks6qg75Y_UiIa-23" edge="1">
          <mxGeometry relative="1" as="geometry">
            <mxPoint x="640" y="900" as="sourcePoint" />
            <mxPoint x="880" y="840" as="targetPoint" />
          </mxGeometry>
        </mxCell>
        <mxCell id="lj193RAks6qg75Y_UiIa-57" value="&lt;p style=&quot;white-space: pre-wrap;&quot; dir=&quot;auto&quot;&gt;&lt;br&gt;&lt;/p&gt;" style="edgeLabel;html=1;align=center;verticalAlign=middle;resizable=0;points=[];" parent="lj193RAks6qg75Y_UiIa-56" vertex="1" connectable="0">
          <mxGeometry x="-0.1048" y="3" relative="1" as="geometry">
            <mxPoint as="offset" />
          </mxGeometry>
        </mxCell>
        <mxCell id="lj193RAks6qg75Y_UiIa-59" style="rounded=0;orthogonalLoop=1;jettySize=auto;html=1;entryX=1;entryY=0.5;entryDx=0;entryDy=0;exitX=0;exitY=0.5;exitDx=0;exitDy=0;" parent="1" source="lj193RAks6qg75Y_UiIa-41" target="lj193RAks6qg75Y_UiIa-49" edge="1">
          <mxGeometry relative="1" as="geometry">
            <mxPoint x="842" y="980" as="sourcePoint" />
            <mxPoint x="600" y="1078" as="targetPoint" />
          </mxGeometry>
        </mxCell>
        <mxCell id="lj193RAks6qg75Y_UiIa-60" value="&lt;p style=&quot;white-space: pre-wrap;&quot; dir=&quot;auto&quot;&gt;&lt;br&gt;&lt;/p&gt;" style="edgeLabel;html=1;align=center;verticalAlign=middle;resizable=0;points=[];" parent="lj193RAks6qg75Y_UiIa-59" vertex="1" connectable="0">
          <mxGeometry x="-0.1048" y="3" relative="1" as="geometry">
            <mxPoint as="offset" />
          </mxGeometry>
        </mxCell>
        <mxCell id="lj193RAks6qg75Y_UiIa-61" value="&amp;lt;&amp;lt;includes&amp;gt;&amp;gt;" style="edgeLabel;html=1;align=center;verticalAlign=middle;resizable=0;points=[];rotation=-15;" parent="lj193RAks6qg75Y_UiIa-59" vertex="1" connectable="0">
          <mxGeometry x="-0.2819" y="-1" relative="1" as="geometry">
            <mxPoint x="-40" y="-1" as="offset" />
          </mxGeometry>
        </mxCell>
        <mxCell id="lj193RAks6qg75Y_UiIa-62" style="rounded=0;orthogonalLoop=1;jettySize=auto;html=1;entryX=0;entryY=0.5;entryDx=0;entryDy=0;exitX=1;exitY=0.5;exitDx=0;exitDy=0;" parent="1" source="lj193RAks6qg75Y_UiIa-42" target="lj193RAks6qg75Y_UiIa-43" edge="1">
          <mxGeometry relative="1" as="geometry">
            <mxPoint x="-20" y="1160" as="sourcePoint" />
            <mxPoint x="-40" y="1195" as="targetPoint" />
          </mxGeometry>
        </mxCell>
        <mxCell id="lj193RAks6qg75Y_UiIa-63" value="&lt;p style=&quot;white-space: pre-wrap;&quot; dir=&quot;auto&quot;&gt;&lt;br&gt;&lt;/p&gt;" style="edgeLabel;html=1;align=center;verticalAlign=middle;resizable=0;points=[];" parent="lj193RAks6qg75Y_UiIa-62" vertex="1" connectable="0">
          <mxGeometry x="-0.1048" y="3" relative="1" as="geometry">
            <mxPoint as="offset" />
          </mxGeometry>
        </mxCell>
        <mxCell id="lj193RAks6qg75Y_UiIa-64" value="&amp;lt;&amp;lt;includes&amp;gt;&amp;gt;" style="edgeLabel;html=1;align=center;verticalAlign=middle;resizable=0;points=[];" parent="lj193RAks6qg75Y_UiIa-62" vertex="1" connectable="0">
          <mxGeometry x="-0.2819" y="-1" relative="1" as="geometry">
            <mxPoint x="34" y="-5" as="offset" />
          </mxGeometry>
        </mxCell>
        <mxCell id="lj193RAks6qg75Y_UiIa-65" style="rounded=0;orthogonalLoop=1;jettySize=auto;html=1;entryX=0.964;entryY=0.629;entryDx=0;entryDy=0;exitX=0;exitY=0.5;exitDx=0;exitDy=0;entryPerimeter=0;" parent="1" source="lj193RAks6qg75Y_UiIa-45" target="lj193RAks6qg75Y_UiIa-49" edge="1">
          <mxGeometry relative="1" as="geometry">
            <mxPoint x="830" y="1075" as="sourcePoint" />
            <mxPoint x="580" y="1095" as="targetPoint" />
          </mxGeometry>
        </mxCell>
        <mxCell id="lj193RAks6qg75Y_UiIa-66" value="&lt;p style=&quot;white-space: pre-wrap;&quot; dir=&quot;auto&quot;&gt;&lt;br&gt;&lt;/p&gt;" style="edgeLabel;html=1;align=center;verticalAlign=middle;resizable=0;points=[];" parent="lj193RAks6qg75Y_UiIa-65" vertex="1" connectable="0">
          <mxGeometry x="-0.1048" y="3" relative="1" as="geometry">
            <mxPoint as="offset" />
          </mxGeometry>
        </mxCell>
        <mxCell id="lj193RAks6qg75Y_UiIa-67" value="&amp;lt;&amp;lt;includes&amp;gt;&amp;gt;" style="edgeLabel;html=1;align=center;verticalAlign=middle;resizable=0;points=[];" parent="lj193RAks6qg75Y_UiIa-65" vertex="1" connectable="0">
          <mxGeometry x="-0.2819" y="-1" relative="1" as="geometry">
            <mxPoint x="-92" y="-9" as="offset" />
          </mxGeometry>
        </mxCell>
        <mxCell id="lj193RAks6qg75Y_UiIa-68" style="rounded=0;orthogonalLoop=1;jettySize=auto;html=1;entryX=1;entryY=0.5;entryDx=0;entryDy=0;dashed=1;exitX=0;exitY=0.5;exitDx=0;exitDy=0;" parent="1" source="lj193RAks6qg75Y_UiIa-47" target="lj193RAks6qg75Y_UiIa-48" edge="1">
          <mxGeometry relative="1" as="geometry">
            <mxPoint x="620" y="250" as="sourcePoint" />
            <mxPoint x="870" y="220" as="targetPoint" />
          </mxGeometry>
        </mxCell>
        <mxCell id="lj193RAks6qg75Y_UiIa-69" value="&lt;p style=&quot;white-space: pre-wrap;&quot; dir=&quot;auto&quot;&gt;&lt;br&gt;&lt;/p&gt;" style="edgeLabel;html=1;align=center;verticalAlign=middle;resizable=0;points=[];" parent="lj193RAks6qg75Y_UiIa-68" vertex="1" connectable="0">
          <mxGeometry x="-0.1048" y="3" relative="1" as="geometry">
            <mxPoint as="offset" />
          </mxGeometry>
        </mxCell>
      </root>
    </mxGraphModel>
  </diagram>
  <diagram id="g59XrjD1MLq389oxzAzd" name="Page-2">
    <mxGraphModel dx="1577" dy="2177" grid="1" gridSize="10" guides="1" tooltips="1" connect="1" arrows="1" fold="1" page="1" pageScale="1" pageWidth="1600" pageHeight="900" math="0" shadow="0">
      <root>
        <mxCell id="0" />
        <mxCell id="1" parent="0" />
        <mxCell id="hl1yCXHX7fQOaKHVeMeW-11" value="" style="rounded=0;whiteSpace=wrap;html=1;movable=0;resizable=0;rotatable=0;deletable=0;editable=0;locked=1;connectable=0;" vertex="1" parent="1">
          <mxGeometry x="1420" y="-160" width="960" height="1080" as="geometry" />
        </mxCell>
        <mxCell id="t1pjkCTu5Dt37rzrufvv-8" value="" style="rounded=0;whiteSpace=wrap;html=1;movable=0;resizable=0;rotatable=0;deletable=0;editable=0;locked=1;connectable=0;" vertex="1" parent="1">
          <mxGeometry x="380" y="80" width="770" height="890" as="geometry" />
        </mxCell>
        <mxCell id="t1pjkCTu5Dt37rzrufvv-1" value="&lt;p style=&quot;white-space-collapse: preserve;&quot; dir=&quot;auto&quot;&gt;Register Practice Account&lt;/p&gt;" style="ellipse;whiteSpace=wrap;html=1;" vertex="1" parent="1">
          <mxGeometry x="430" y="130" width="110" height="50" as="geometry" />
        </mxCell>
        <mxCell id="t1pjkCTu5Dt37rzrufvv-2" style="rounded=0;orthogonalLoop=1;jettySize=auto;html=1;dashed=1;exitX=1.019;exitY=0.642;exitDx=0;exitDy=0;exitPerimeter=0;entryX=0;entryY=0.5;entryDx=0;entryDy=0;" edge="1" parent="1" source="wMCF1qHYB4ZY6y4vtxid-2" target="wMCF1qHYB4ZY6y4vtxid-6">
          <mxGeometry relative="1" as="geometry">
            <mxPoint x="710" y="487" as="sourcePoint" />
            <mxPoint x="890" y="450" as="targetPoint" />
          </mxGeometry>
        </mxCell>
        <mxCell id="t1pjkCTu5Dt37rzrufvv-3" value="&lt;p style=&quot;white-space: pre-wrap;&quot; dir=&quot;auto&quot;&gt;&lt;br&gt;&lt;/p&gt;" style="edgeLabel;html=1;align=center;verticalAlign=middle;resizable=0;points=[];" vertex="1" connectable="0" parent="t1pjkCTu5Dt37rzrufvv-2">
          <mxGeometry x="-0.1048" y="3" relative="1" as="geometry">
            <mxPoint as="offset" />
          </mxGeometry>
        </mxCell>
        <mxCell id="t1pjkCTu5Dt37rzrufvv-4" value="&amp;lt;&amp;lt;extends&amp;gt;&amp;gt;" style="edgeLabel;html=1;align=center;verticalAlign=middle;resizable=0;points=[];" vertex="1" connectable="0" parent="t1pjkCTu5Dt37rzrufvv-2">
          <mxGeometry x="-0.2819" y="-1" relative="1" as="geometry">
            <mxPoint x="22" as="offset" />
          </mxGeometry>
        </mxCell>
        <mxCell id="t1pjkCTu5Dt37rzrufvv-5" style="rounded=0;orthogonalLoop=1;jettySize=auto;html=1;entryX=0;entryY=0.5;entryDx=0;entryDy=0;exitX=1;exitY=0.5;exitDx=0;exitDy=0;" edge="1" parent="1" source="t1pjkCTu5Dt37rzrufvv-1" target="t1pjkCTu5Dt37rzrufvv-9">
          <mxGeometry relative="1" as="geometry">
            <mxPoint x="-105" y="1012" as="sourcePoint" />
            <mxPoint x="775" y="357" as="targetPoint" />
          </mxGeometry>
        </mxCell>
        <mxCell id="t1pjkCTu5Dt37rzrufvv-6" value="&lt;p style=&quot;white-space: pre-wrap;&quot; dir=&quot;auto&quot;&gt;&lt;br&gt;&lt;/p&gt;" style="edgeLabel;html=1;align=center;verticalAlign=middle;resizable=0;points=[];" vertex="1" connectable="0" parent="t1pjkCTu5Dt37rzrufvv-5">
          <mxGeometry x="-0.1048" y="3" relative="1" as="geometry">
            <mxPoint as="offset" />
          </mxGeometry>
        </mxCell>
        <mxCell id="t1pjkCTu5Dt37rzrufvv-7" value="&amp;lt;&amp;lt;includes&amp;gt;&amp;gt;" style="edgeLabel;html=1;align=center;verticalAlign=middle;resizable=0;points=[];" vertex="1" connectable="0" parent="t1pjkCTu5Dt37rzrufvv-5">
          <mxGeometry x="-0.2819" y="-1" relative="1" as="geometry">
            <mxPoint x="17" y="-5" as="offset" />
          </mxGeometry>
        </mxCell>
        <mxCell id="t1pjkCTu5Dt37rzrufvv-13" style="edgeStyle=orthogonalEdgeStyle;rounded=0;orthogonalLoop=1;jettySize=auto;html=1;entryX=0;entryY=0.5;entryDx=0;entryDy=0;" edge="1" parent="1" source="t1pjkCTu5Dt37rzrufvv-9" target="t1pjkCTu5Dt37rzrufvv-12">
          <mxGeometry relative="1" as="geometry" />
        </mxCell>
        <mxCell id="t1pjkCTu5Dt37rzrufvv-9" value="&lt;p style=&quot;white-space-collapse: preserve;&quot; dir=&quot;auto&quot;&gt;Verify Email &amp;amp; Mobile via OTP&lt;/p&gt;" style="ellipse;whiteSpace=wrap;html=1;" vertex="1" parent="1">
          <mxGeometry x="660" y="130" width="110" height="50" as="geometry" />
        </mxCell>
        <mxCell id="t1pjkCTu5Dt37rzrufvv-12" value="&lt;p style=&quot;white-space-collapse: preserve;&quot; dir=&quot;auto&quot;&gt;View Intro Screens&lt;/p&gt;" style="ellipse;whiteSpace=wrap;html=1;" vertex="1" parent="1">
          <mxGeometry x="850" y="130" width="110" height="50" as="geometry" />
        </mxCell>
        <mxCell id="t1pjkCTu5Dt37rzrufvv-17" value="" style="edgeStyle=orthogonalEdgeStyle;rounded=0;orthogonalLoop=1;jettySize=auto;html=1;" edge="1" parent="1" source="t1pjkCTu5Dt37rzrufvv-14" target="t1pjkCTu5Dt37rzrufvv-15">
          <mxGeometry relative="1" as="geometry" />
        </mxCell>
        <mxCell id="t1pjkCTu5Dt37rzrufvv-18" value="&amp;lt;&amp;lt;includes&amp;gt;&amp;gt;" style="edgeLabel;html=1;align=center;verticalAlign=middle;resizable=0;points=[];" vertex="1" connectable="0" parent="t1pjkCTu5Dt37rzrufvv-17">
          <mxGeometry x="-0.284" y="2" relative="1" as="geometry">
            <mxPoint x="8" y="2" as="offset" />
          </mxGeometry>
        </mxCell>
        <mxCell id="t1pjkCTu5Dt37rzrufvv-14" value="&lt;p style=&quot;white-space-collapse: preserve;&quot; dir=&quot;auto&quot;&gt;Setup Clinic Profile&lt;/p&gt;" style="ellipse;whiteSpace=wrap;html=1;" vertex="1" parent="1">
          <mxGeometry x="430" y="240" width="110" height="50" as="geometry" />
        </mxCell>
        <mxCell id="t1pjkCTu5Dt37rzrufvv-15" value="&lt;p style=&quot;white-space-collapse: preserve;&quot; dir=&quot;auto&quot;&gt;Input Basic info &lt;/p&gt;" style="ellipse;whiteSpace=wrap;html=1;" vertex="1" parent="1">
          <mxGeometry x="650" y="240" width="110" height="50" as="geometry" />
        </mxCell>
        <mxCell id="t1pjkCTu5Dt37rzrufvv-16" value="&lt;p style=&quot;white-space-collapse: preserve;&quot; dir=&quot;auto&quot;&gt;Auto validate &lt;br/&gt;CQC &amp;amp; VAT number&lt;/p&gt;" style="ellipse;whiteSpace=wrap;html=1;" vertex="1" parent="1">
          <mxGeometry x="890" y="235" width="120" height="60" as="geometry" />
        </mxCell>
        <mxCell id="t1pjkCTu5Dt37rzrufvv-19" value="" style="edgeStyle=orthogonalEdgeStyle;rounded=0;orthogonalLoop=1;jettySize=auto;html=1;exitX=1;exitY=0.5;exitDx=0;exitDy=0;entryX=0;entryY=0.5;entryDx=0;entryDy=0;" edge="1" parent="1" source="t1pjkCTu5Dt37rzrufvv-15" target="t1pjkCTu5Dt37rzrufvv-16">
          <mxGeometry relative="1" as="geometry">
            <mxPoint x="750" y="290" as="sourcePoint" />
            <mxPoint x="840" y="290" as="targetPoint" />
          </mxGeometry>
        </mxCell>
        <mxCell id="t1pjkCTu5Dt37rzrufvv-20" value="&amp;lt;&amp;lt;includes&amp;gt;&amp;gt;" style="edgeLabel;html=1;align=center;verticalAlign=middle;resizable=0;points=[];" vertex="1" connectable="0" parent="t1pjkCTu5Dt37rzrufvv-19">
          <mxGeometry x="-0.284" y="2" relative="1" as="geometry">
            <mxPoint x="8" y="2" as="offset" />
          </mxGeometry>
        </mxCell>
        <mxCell id="LkB0MAZeV9YKqllsjQI8-5" style="edgeStyle=orthogonalEdgeStyle;rounded=0;orthogonalLoop=1;jettySize=auto;html=1;entryX=0;entryY=0.5;entryDx=0;entryDy=0;" edge="1" parent="1" source="2FoirlY63dZesPyJFK1_-1" target="t1pjkCTu5Dt37rzrufvv-1">
          <mxGeometry relative="1" as="geometry" />
        </mxCell>
        <mxCell id="LkB0MAZeV9YKqllsjQI8-6" style="edgeStyle=orthogonalEdgeStyle;rounded=0;orthogonalLoop=1;jettySize=auto;html=1;entryX=0;entryY=0.5;entryDx=0;entryDy=0;" edge="1" parent="1" source="2FoirlY63dZesPyJFK1_-1" target="wMCF1qHYB4ZY6y4vtxid-9">
          <mxGeometry relative="1" as="geometry" />
        </mxCell>
        <mxCell id="LkB0MAZeV9YKqllsjQI8-7" style="edgeStyle=orthogonalEdgeStyle;rounded=0;orthogonalLoop=1;jettySize=auto;html=1;entryX=0;entryY=0.5;entryDx=0;entryDy=0;" edge="1" parent="1" source="2FoirlY63dZesPyJFK1_-1" target="t1pjkCTu5Dt37rzrufvv-14">
          <mxGeometry relative="1" as="geometry" />
        </mxCell>
        <mxCell id="LkB0MAZeV9YKqllsjQI8-8" style="edgeStyle=orthogonalEdgeStyle;rounded=0;orthogonalLoop=1;jettySize=auto;html=1;entryX=0;entryY=0.5;entryDx=0;entryDy=0;" edge="1" parent="1" source="2FoirlY63dZesPyJFK1_-1" target="wMCF1qHYB4ZY6y4vtxid-23">
          <mxGeometry relative="1" as="geometry" />
        </mxCell>
        <mxCell id="LkB0MAZeV9YKqllsjQI8-9" style="edgeStyle=orthogonalEdgeStyle;rounded=0;orthogonalLoop=1;jettySize=auto;html=1;entryX=0;entryY=0.5;entryDx=0;entryDy=0;" edge="1" parent="1" source="2FoirlY63dZesPyJFK1_-1" target="LkB0MAZeV9YKqllsjQI8-1">
          <mxGeometry relative="1" as="geometry" />
        </mxCell>
        <mxCell id="2FoirlY63dZesPyJFK1_-1" value="Practice Manager&lt;div&gt;&lt;br&gt;&lt;/div&gt;" style="shape=umlActor;verticalLabelPosition=bottom;verticalAlign=top;html=1;outlineConnect=0;" vertex="1" parent="1">
          <mxGeometry x="200" y="470" width="30" height="60" as="geometry" />
        </mxCell>
        <mxCell id="wMCF1qHYB4ZY6y4vtxid-1" value="UC 1.0 Practice Onboarding" style="text;html=1;align=center;verticalAlign=middle;whiteSpace=wrap;rounded=0;fontSize=18;fontStyle=1" vertex="1" parent="1">
          <mxGeometry x="635" y="34" width="260" height="30" as="geometry" />
        </mxCell>
        <mxCell id="wMCF1qHYB4ZY6y4vtxid-2" value="&lt;p style=&quot;white-space-collapse: preserve;&quot; dir=&quot;auto&quot;&gt;Set key operational info&lt;/p&gt;" style="ellipse;whiteSpace=wrap;html=1;" vertex="1" parent="1">
          <mxGeometry x="630" y="345" width="120" height="55" as="geometry" />
        </mxCell>
        <mxCell id="wMCF1qHYB4ZY6y4vtxid-3" value="&lt;p style=&quot;white-space-collapse: preserve;&quot; dir=&quot;auto&quot;&gt;Parking availability&lt;br/&gt;&amp;amp; Staff facilities &lt;/p&gt;" style="ellipse;whiteSpace=wrap;html=1;" vertex="1" parent="1">
          <mxGeometry x="890" y="330" width="120" height="60" as="geometry" />
        </mxCell>
        <mxCell id="wMCF1qHYB4ZY6y4vtxid-4" value="" style="rounded=0;orthogonalLoop=1;jettySize=auto;html=1;exitX=1;exitY=0.5;exitDx=0;exitDy=0;entryX=0;entryY=0.5;entryDx=0;entryDy=0;" edge="1" source="wMCF1qHYB4ZY6y4vtxid-2" target="wMCF1qHYB4ZY6y4vtxid-3" parent="1">
          <mxGeometry relative="1" as="geometry">
            <mxPoint x="750" y="395" as="sourcePoint" />
            <mxPoint x="840" y="395" as="targetPoint" />
          </mxGeometry>
        </mxCell>
        <mxCell id="wMCF1qHYB4ZY6y4vtxid-5" value="&amp;lt;&amp;lt;includes&amp;gt;&amp;gt;" style="edgeLabel;html=1;align=center;verticalAlign=middle;resizable=0;points=[];" vertex="1" connectable="0" parent="wMCF1qHYB4ZY6y4vtxid-4">
          <mxGeometry x="-0.284" y="2" relative="1" as="geometry">
            <mxPoint x="20" y="4" as="offset" />
          </mxGeometry>
        </mxCell>
        <mxCell id="wMCF1qHYB4ZY6y4vtxid-6" value="&lt;p style=&quot;&quot; dir=&quot;auto&quot;&gt;&lt;span style=&quot;white-space-collapse: preserve;&quot;&gt;Optional photo uploads of clinic&lt;/span&gt;&lt;/p&gt;" style="ellipse;whiteSpace=wrap;html=1;" vertex="1" parent="1">
          <mxGeometry x="890" y="420" width="120" height="60" as="geometry" />
        </mxCell>
        <mxCell id="wMCF1qHYB4ZY6y4vtxid-7" value="" style="rounded=0;orthogonalLoop=1;jettySize=auto;html=1;exitX=1;exitY=0.5;exitDx=0;exitDy=0;entryX=0;entryY=0.5;entryDx=0;entryDy=0;" edge="1" parent="1" source="t1pjkCTu5Dt37rzrufvv-14" target="wMCF1qHYB4ZY6y4vtxid-2">
          <mxGeometry relative="1" as="geometry">
            <mxPoint x="550" y="275" as="sourcePoint" />
            <mxPoint x="640" y="275" as="targetPoint" />
          </mxGeometry>
        </mxCell>
        <mxCell id="wMCF1qHYB4ZY6y4vtxid-8" value="&amp;lt;&amp;lt;includes&amp;gt;&amp;gt;" style="edgeLabel;html=1;align=center;verticalAlign=middle;resizable=0;points=[];" vertex="1" connectable="0" parent="wMCF1qHYB4ZY6y4vtxid-7">
          <mxGeometry x="-0.284" y="2" relative="1" as="geometry">
            <mxPoint x="16" y="18" as="offset" />
          </mxGeometry>
        </mxCell>
        <mxCell id="wMCF1qHYB4ZY6y4vtxid-9" value="&lt;p style=&quot;white-space-collapse: preserve;&quot; dir=&quot;auto&quot;&gt;Manage Practice Team&lt;/p&gt;" style="ellipse;whiteSpace=wrap;html=1;" vertex="1" parent="1">
          <mxGeometry x="430" y="570" width="110" height="50" as="geometry" />
        </mxCell>
        <mxCell id="wMCF1qHYB4ZY6y4vtxid-14" style="edgeStyle=orthogonalEdgeStyle;rounded=0;orthogonalLoop=1;jettySize=auto;html=1;entryX=0;entryY=0.5;entryDx=0;entryDy=0;endArrow=none;endFill=0;dashed=1;" edge="1" parent="1" source="wMCF1qHYB4ZY6y4vtxid-10" target="wMCF1qHYB4ZY6y4vtxid-13">
          <mxGeometry relative="1" as="geometry" />
        </mxCell>
        <mxCell id="wMCF1qHYB4ZY6y4vtxid-10" value="&lt;p style=&quot;white-space-collapse: preserve;&quot; dir=&quot;auto&quot;&gt;&lt;br&gt;&lt;/p&gt;&lt;p class=&quot;p1&quot;&gt;Invite Users via Email&lt;/p&gt;&lt;p style=&quot;white-space-collapse: preserve;&quot; dir=&quot;auto&quot;&gt;&lt;br&gt;&lt;/p&gt;" style="ellipse;whiteSpace=wrap;html=1;" vertex="1" parent="1">
          <mxGeometry x="635" y="570" width="110" height="50" as="geometry" />
        </mxCell>
        <mxCell id="wMCF1qHYB4ZY6y4vtxid-11" value="" style="rounded=0;orthogonalLoop=1;jettySize=auto;html=1;exitX=1;exitY=0.5;exitDx=0;exitDy=0;entryX=0;entryY=0.5;entryDx=0;entryDy=0;" edge="1" parent="1" source="wMCF1qHYB4ZY6y4vtxid-9" target="wMCF1qHYB4ZY6y4vtxid-10">
          <mxGeometry relative="1" as="geometry">
            <mxPoint x="570" y="530" as="sourcePoint" />
            <mxPoint x="660" y="638" as="targetPoint" />
          </mxGeometry>
        </mxCell>
        <mxCell id="wMCF1qHYB4ZY6y4vtxid-12" value="&amp;lt;&amp;lt;includes&amp;gt;&amp;gt;" style="edgeLabel;html=1;align=center;verticalAlign=middle;resizable=0;points=[];" vertex="1" connectable="0" parent="wMCF1qHYB4ZY6y4vtxid-11">
          <mxGeometry x="-0.284" y="2" relative="1" as="geometry">
            <mxPoint x="6" y="2" as="offset" />
          </mxGeometry>
        </mxCell>
        <mxCell id="wMCF1qHYB4ZY6y4vtxid-13" value="&lt;p style=&quot;white-space-collapse: preserve;&quot; dir=&quot;auto&quot;&gt;Assign Role to the user&lt;/p&gt;" style="ellipse;whiteSpace=wrap;html=1;" vertex="1" parent="1">
          <mxGeometry x="800" y="570" width="110" height="50" as="geometry" />
        </mxCell>
        <mxCell id="wMCF1qHYB4ZY6y4vtxid-15" value="&lt;p style=&quot;&quot; dir=&quot;auto&quot;&gt;&lt;span style=&quot;white-space-collapse: preserve;&quot;&gt;Edit / Change Role&lt;/span&gt;&lt;/p&gt;" style="ellipse;whiteSpace=wrap;html=1;" vertex="1" parent="1">
          <mxGeometry x="990" y="530" width="110" height="50" as="geometry" />
        </mxCell>
        <mxCell id="wMCF1qHYB4ZY6y4vtxid-16" value="&lt;p style=&quot;&quot; dir=&quot;auto&quot;&gt;&lt;span style=&quot;white-space-collapse: preserve;&quot;&gt;Deactivate User&lt;/span&gt;&lt;/p&gt;" style="ellipse;whiteSpace=wrap;html=1;" vertex="1" parent="1">
          <mxGeometry x="990" y="620" width="110" height="50" as="geometry" />
        </mxCell>
        <mxCell id="wMCF1qHYB4ZY6y4vtxid-17" style="rounded=0;orthogonalLoop=1;jettySize=auto;html=1;dashed=1;exitX=1;exitY=0.5;exitDx=0;exitDy=0;entryX=0;entryY=0.5;entryDx=0;entryDy=0;" edge="1" parent="1" source="wMCF1qHYB4ZY6y4vtxid-13" target="wMCF1qHYB4ZY6y4vtxid-15">
          <mxGeometry relative="1" as="geometry">
            <mxPoint x="900" y="560" as="sourcePoint" />
            <mxPoint x="1038" y="630" as="targetPoint" />
          </mxGeometry>
        </mxCell>
        <mxCell id="wMCF1qHYB4ZY6y4vtxid-18" value="&lt;p style=&quot;white-space: pre-wrap;&quot; dir=&quot;auto&quot;&gt;&lt;br&gt;&lt;/p&gt;" style="edgeLabel;html=1;align=center;verticalAlign=middle;resizable=0;points=[];" vertex="1" connectable="0" parent="wMCF1qHYB4ZY6y4vtxid-17">
          <mxGeometry x="-0.1048" y="3" relative="1" as="geometry">
            <mxPoint as="offset" />
          </mxGeometry>
        </mxCell>
        <mxCell id="wMCF1qHYB4ZY6y4vtxid-19" value="&amp;lt;&amp;lt;extends&amp;gt;&amp;gt;" style="edgeLabel;html=1;align=center;verticalAlign=middle;resizable=0;points=[];" vertex="1" connectable="0" parent="wMCF1qHYB4ZY6y4vtxid-17">
          <mxGeometry x="-0.2819" y="-1" relative="1" as="geometry">
            <mxPoint x="22" as="offset" />
          </mxGeometry>
        </mxCell>
        <mxCell id="wMCF1qHYB4ZY6y4vtxid-20" style="rounded=0;orthogonalLoop=1;jettySize=auto;html=1;dashed=1;exitX=1;exitY=0.5;exitDx=0;exitDy=0;entryX=0;entryY=0.5;entryDx=0;entryDy=0;" edge="1" parent="1" source="wMCF1qHYB4ZY6y4vtxid-13" target="wMCF1qHYB4ZY6y4vtxid-16">
          <mxGeometry relative="1" as="geometry">
            <mxPoint x="920" y="605" as="sourcePoint" />
            <mxPoint x="1000" y="565" as="targetPoint" />
          </mxGeometry>
        </mxCell>
        <mxCell id="wMCF1qHYB4ZY6y4vtxid-21" value="&lt;p style=&quot;white-space: pre-wrap;&quot; dir=&quot;auto&quot;&gt;&lt;br&gt;&lt;/p&gt;" style="edgeLabel;html=1;align=center;verticalAlign=middle;resizable=0;points=[];" vertex="1" connectable="0" parent="wMCF1qHYB4ZY6y4vtxid-20">
          <mxGeometry x="-0.1048" y="3" relative="1" as="geometry">
            <mxPoint as="offset" />
          </mxGeometry>
        </mxCell>
        <mxCell id="wMCF1qHYB4ZY6y4vtxid-22" value="&amp;lt;&amp;lt;extends&amp;gt;&amp;gt;" style="edgeLabel;html=1;align=center;verticalAlign=middle;resizable=0;points=[];" vertex="1" connectable="0" parent="wMCF1qHYB4ZY6y4vtxid-20">
          <mxGeometry x="-0.2819" y="-1" relative="1" as="geometry">
            <mxPoint x="22" as="offset" />
          </mxGeometry>
        </mxCell>
        <mxCell id="wMCF1qHYB4ZY6y4vtxid-23" value="&lt;p style=&quot;white-space-collapse: preserve;&quot; dir=&quot;auto&quot;&gt;Practice Ledger Setup&lt;/p&gt;" style="ellipse;whiteSpace=wrap;html=1;" vertex="1" parent="1">
          <mxGeometry x="430" y="720" width="110" height="60" as="geometry" />
        </mxCell>
        <mxCell id="wMCF1qHYB4ZY6y4vtxid-24" value="&lt;p style=&quot;white-space-collapse: preserve;&quot; dir=&quot;auto&quot;&gt;Choose Billing Method&lt;/p&gt;" style="ellipse;whiteSpace=wrap;html=1;" vertex="1" parent="1">
          <mxGeometry x="630" y="725" width="110" height="50" as="geometry" />
        </mxCell>
        <mxCell id="wMCF1qHYB4ZY6y4vtxid-27" value="&lt;p style=&quot;white-space-collapse: preserve;&quot; dir=&quot;auto&quot;&gt;Verify Billing Setup&lt;/p&gt;" style="ellipse;whiteSpace=wrap;html=1;" vertex="1" parent="1">
          <mxGeometry x="850" y="725" width="110" height="50" as="geometry" />
        </mxCell>
        <mxCell id="wMCF1qHYB4ZY6y4vtxid-28" value="" style="rounded=0;orthogonalLoop=1;jettySize=auto;html=1;exitX=1;exitY=0.5;exitDx=0;exitDy=0;entryX=0;entryY=0.5;entryDx=0;entryDy=0;" edge="1" parent="1" source="wMCF1qHYB4ZY6y4vtxid-23" target="wMCF1qHYB4ZY6y4vtxid-24">
          <mxGeometry relative="1" as="geometry">
            <mxPoint x="555" y="754.58" as="sourcePoint" />
            <mxPoint x="650" y="754.58" as="targetPoint" />
          </mxGeometry>
        </mxCell>
        <mxCell id="wMCF1qHYB4ZY6y4vtxid-29" value="&amp;lt;&amp;lt;includes&amp;gt;&amp;gt;" style="edgeLabel;html=1;align=center;verticalAlign=middle;resizable=0;points=[];" vertex="1" connectable="0" parent="wMCF1qHYB4ZY6y4vtxid-28">
          <mxGeometry x="-0.284" y="2" relative="1" as="geometry">
            <mxPoint x="8" y="2" as="offset" />
          </mxGeometry>
        </mxCell>
        <mxCell id="wMCF1qHYB4ZY6y4vtxid-30" style="rounded=0;orthogonalLoop=1;jettySize=auto;html=1;dashed=1;exitX=1;exitY=0.5;exitDx=0;exitDy=0;entryX=0;entryY=0.5;entryDx=0;entryDy=0;" edge="1" parent="1" source="wMCF1qHYB4ZY6y4vtxid-24" target="wMCF1qHYB4ZY6y4vtxid-27">
          <mxGeometry relative="1" as="geometry">
            <mxPoint x="800" y="780" as="sourcePoint" />
            <mxPoint x="880" y="830" as="targetPoint" />
          </mxGeometry>
        </mxCell>
        <mxCell id="wMCF1qHYB4ZY6y4vtxid-31" value="&lt;p style=&quot;white-space: pre-wrap;&quot; dir=&quot;auto&quot;&gt;&lt;br&gt;&lt;/p&gt;" style="edgeLabel;html=1;align=center;verticalAlign=middle;resizable=0;points=[];" vertex="1" connectable="0" parent="wMCF1qHYB4ZY6y4vtxid-30">
          <mxGeometry x="-0.1048" y="3" relative="1" as="geometry">
            <mxPoint as="offset" />
          </mxGeometry>
        </mxCell>
        <mxCell id="wMCF1qHYB4ZY6y4vtxid-32" value="&amp;lt;&amp;lt;extends&amp;gt;&amp;gt;" style="edgeLabel;html=1;align=center;verticalAlign=middle;resizable=0;points=[];" vertex="1" connectable="0" parent="wMCF1qHYB4ZY6y4vtxid-30">
          <mxGeometry x="-0.2819" y="-1" relative="1" as="geometry">
            <mxPoint x="11" as="offset" />
          </mxGeometry>
        </mxCell>
        <mxCell id="LkB0MAZeV9YKqllsjQI8-1" value="&lt;p style=&quot;white-space-collapse: preserve;&quot; dir=&quot;auto&quot;&gt;Complete Practice Culture Survey&lt;/p&gt;" style="ellipse;whiteSpace=wrap;html=1;" vertex="1" parent="1">
          <mxGeometry x="430" y="850" width="110" height="60" as="geometry" />
        </mxCell>
        <mxCell id="LkB0MAZeV9YKqllsjQI8-2" value="&lt;p style=&quot;white-space-collapse: preserve;&quot; dir=&quot;auto&quot;&gt;Classify clinic type&lt;/p&gt;" style="ellipse;whiteSpace=wrap;html=1;" vertex="1" parent="1">
          <mxGeometry x="650" y="855" width="110" height="50" as="geometry" />
        </mxCell>
        <mxCell id="LkB0MAZeV9YKqllsjQI8-3" value="" style="rounded=0;orthogonalLoop=1;jettySize=auto;html=1;exitX=1;exitY=0.5;exitDx=0;exitDy=0;entryX=0;entryY=0.5;entryDx=0;entryDy=0;" edge="1" parent="1" source="LkB0MAZeV9YKqllsjQI8-1" target="LkB0MAZeV9YKqllsjQI8-2">
          <mxGeometry relative="1" as="geometry">
            <mxPoint x="560" y="920" as="sourcePoint" />
            <mxPoint x="650" y="920" as="targetPoint" />
          </mxGeometry>
        </mxCell>
        <mxCell id="LkB0MAZeV9YKqllsjQI8-4" value="&amp;lt;&amp;lt;includes&amp;gt;&amp;gt;" style="edgeLabel;html=1;align=center;verticalAlign=middle;resizable=0;points=[];" vertex="1" connectable="0" parent="LkB0MAZeV9YKqllsjQI8-3">
          <mxGeometry x="-0.284" y="2" relative="1" as="geometry">
            <mxPoint x="11" y="2" as="offset" />
          </mxGeometry>
        </mxCell>
        <mxCell id="hl1yCXHX7fQOaKHVeMeW-23" style="edgeStyle=orthogonalEdgeStyle;rounded=0;orthogonalLoop=1;jettySize=auto;html=1;entryX=0;entryY=0.5;entryDx=0;entryDy=0;" edge="1" parent="1" source="hl1yCXHX7fQOaKHVeMeW-3" target="hl1yCXHX7fQOaKHVeMeW-22">
          <mxGeometry relative="1" as="geometry" />
        </mxCell>
        <mxCell id="hl1yCXHX7fQOaKHVeMeW-3" value="&lt;p style=&quot;white-space-collapse: preserve;&quot; dir=&quot;auto&quot;&gt;Login&lt;/p&gt;" style="ellipse;whiteSpace=wrap;html=1;" vertex="1" parent="1">
          <mxGeometry x="1500" y="205" width="110" height="50" as="geometry" />
        </mxCell>
        <mxCell id="hl1yCXHX7fQOaKHVeMeW-12" value="&lt;p style=&quot;white-space-collapse: preserve;&quot; dir=&quot;auto&quot;&gt;Registration as Organizational owner&lt;/p&gt;" style="ellipse;whiteSpace=wrap;html=1;" vertex="1" parent="1">
          <mxGeometry x="1510" y="34" width="110" height="76" as="geometry" />
        </mxCell>
        <mxCell id="hl1yCXHX7fQOaKHVeMeW-63" style="edgeStyle=orthogonalEdgeStyle;rounded=0;orthogonalLoop=1;jettySize=auto;html=1;entryX=0;entryY=0.5;entryDx=0;entryDy=0;" edge="1" parent="1" source="hl1yCXHX7fQOaKHVeMeW-13" target="hl1yCXHX7fQOaKHVeMeW-12">
          <mxGeometry relative="1" as="geometry" />
        </mxCell>
        <mxCell id="hl1yCXHX7fQOaKHVeMeW-64" style="edgeStyle=orthogonalEdgeStyle;rounded=0;orthogonalLoop=1;jettySize=auto;html=1;entryX=0;entryY=0.5;entryDx=0;entryDy=0;" edge="1" parent="1" source="hl1yCXHX7fQOaKHVeMeW-13" target="hl1yCXHX7fQOaKHVeMeW-3">
          <mxGeometry relative="1" as="geometry">
            <Array as="points">
              <mxPoint x="1400" y="390" />
              <mxPoint x="1400" y="230" />
            </Array>
          </mxGeometry>
        </mxCell>
        <mxCell id="hl1yCXHX7fQOaKHVeMeW-65" style="edgeStyle=orthogonalEdgeStyle;rounded=0;orthogonalLoop=1;jettySize=auto;html=1;entryX=0;entryY=0.5;entryDx=0;entryDy=0;" edge="1" parent="1" source="hl1yCXHX7fQOaKHVeMeW-13" target="hl1yCXHX7fQOaKHVeMeW-24">
          <mxGeometry relative="1" as="geometry">
            <Array as="points">
              <mxPoint x="1400" y="390" />
              <mxPoint x="1400" y="325" />
            </Array>
          </mxGeometry>
        </mxCell>
        <mxCell id="hl1yCXHX7fQOaKHVeMeW-66" style="edgeStyle=orthogonalEdgeStyle;rounded=0;orthogonalLoop=1;jettySize=auto;html=1;entryX=0;entryY=0.5;entryDx=0;entryDy=0;" edge="1" parent="1" source="hl1yCXHX7fQOaKHVeMeW-13" target="hl1yCXHX7fQOaKHVeMeW-27">
          <mxGeometry relative="1" as="geometry">
            <Array as="points">
              <mxPoint x="1400" y="390" />
              <mxPoint x="1400" y="611" />
            </Array>
          </mxGeometry>
        </mxCell>
        <mxCell id="hl1yCXHX7fQOaKHVeMeW-13" value="Practice Admin&lt;div&gt;&lt;br&gt;&lt;/div&gt;" style="shape=umlActor;verticalLabelPosition=bottom;verticalAlign=top;html=1;outlineConnect=0;" vertex="1" parent="1">
          <mxGeometry x="1260" y="360" width="30" height="60" as="geometry" />
        </mxCell>
        <mxCell id="hl1yCXHX7fQOaKHVeMeW-20" style="edgeStyle=orthogonalEdgeStyle;rounded=0;orthogonalLoop=1;jettySize=auto;html=1;entryX=0;entryY=0.5;entryDx=0;entryDy=0;" edge="1" parent="1" source="hl1yCXHX7fQOaKHVeMeW-14" target="hl1yCXHX7fQOaKHVeMeW-18">
          <mxGeometry relative="1" as="geometry" />
        </mxCell>
        <mxCell id="hl1yCXHX7fQOaKHVeMeW-21" style="edgeStyle=orthogonalEdgeStyle;rounded=0;orthogonalLoop=1;jettySize=auto;html=1;entryX=0;entryY=0.5;entryDx=0;entryDy=0;" edge="1" parent="1" source="hl1yCXHX7fQOaKHVeMeW-14" target="hl1yCXHX7fQOaKHVeMeW-19">
          <mxGeometry relative="1" as="geometry" />
        </mxCell>
        <mxCell id="hl1yCXHX7fQOaKHVeMeW-14" value="&lt;p style=&quot;white-space-collapse: preserve;&quot; dir=&quot;auto&quot;&gt;Verify Email &amp;amp; Mobile via OTP&lt;/p&gt;" style="ellipse;whiteSpace=wrap;html=1;" vertex="1" parent="1">
          <mxGeometry x="1770" y="47" width="110" height="50" as="geometry" />
        </mxCell>
        <mxCell id="hl1yCXHX7fQOaKHVeMeW-15" style="rounded=0;orthogonalLoop=1;jettySize=auto;html=1;entryX=0;entryY=0.5;entryDx=0;entryDy=0;exitX=1;exitY=0.5;exitDx=0;exitDy=0;" edge="1" parent="1" source="hl1yCXHX7fQOaKHVeMeW-12" target="hl1yCXHX7fQOaKHVeMeW-14">
          <mxGeometry relative="1" as="geometry">
            <mxPoint x="1640" y="84" as="sourcePoint" />
            <mxPoint x="1780" y="80" as="targetPoint" />
          </mxGeometry>
        </mxCell>
        <mxCell id="hl1yCXHX7fQOaKHVeMeW-16" value="&lt;p style=&quot;white-space: pre-wrap;&quot; dir=&quot;auto&quot;&gt;&lt;br&gt;&lt;/p&gt;" style="edgeLabel;html=1;align=center;verticalAlign=middle;resizable=0;points=[];" vertex="1" connectable="0" parent="hl1yCXHX7fQOaKHVeMeW-15">
          <mxGeometry x="-0.1048" y="3" relative="1" as="geometry">
            <mxPoint as="offset" />
          </mxGeometry>
        </mxCell>
        <mxCell id="hl1yCXHX7fQOaKHVeMeW-17" value="&amp;lt;&amp;lt;includes&amp;gt;&amp;gt;" style="edgeLabel;html=1;align=center;verticalAlign=middle;resizable=0;points=[];" vertex="1" connectable="0" parent="hl1yCXHX7fQOaKHVeMeW-15">
          <mxGeometry x="-0.2819" y="-1" relative="1" as="geometry">
            <mxPoint x="17" y="-5" as="offset" />
          </mxGeometry>
        </mxCell>
        <mxCell id="hl1yCXHX7fQOaKHVeMeW-18" value="&lt;p style=&quot;white-space-collapse: preserve;&quot; dir=&quot;auto&quot;&gt;View Intro Screens&lt;/p&gt;" style="ellipse;whiteSpace=wrap;html=1;" vertex="1" parent="1">
          <mxGeometry x="2010" y="10" width="110" height="50" as="geometry" />
        </mxCell>
        <mxCell id="hl1yCXHX7fQOaKHVeMeW-19" value="&lt;p style=&quot;white-space-collapse: preserve;&quot; dir=&quot;auto&quot;&gt;Unauthorized&lt;br/&gt;Access&lt;/p&gt;" style="ellipse;whiteSpace=wrap;html=1;" vertex="1" parent="1">
          <mxGeometry x="2010" y="100" width="110" height="50" as="geometry" />
        </mxCell>
        <mxCell id="hl1yCXHX7fQOaKHVeMeW-22" value="&lt;p style=&quot;white-space-collapse: preserve;&quot; dir=&quot;auto&quot;&gt;Welcome screen&lt;br/&gt;&amp;amp; Platform benifits&lt;/p&gt;" style="ellipse;whiteSpace=wrap;html=1;" vertex="1" parent="1">
          <mxGeometry x="1750" y="200" width="120" height="60" as="geometry" />
        </mxCell>
        <mxCell id="hl1yCXHX7fQOaKHVeMeW-24" value="&lt;p style=&quot;white-space-collapse: preserve;&quot; dir=&quot;auto&quot;&gt;Practice profile setup&lt;/p&gt;" style="ellipse;whiteSpace=wrap;html=1;" vertex="1" parent="1">
          <mxGeometry x="1500" y="300" width="110" height="50" as="geometry" />
        </mxCell>
        <mxCell id="hl1yCXHX7fQOaKHVeMeW-26" value="&lt;p style=&quot;white-space-collapse: preserve;&quot; dir=&quot;auto&quot;&gt;Manage Clinics&lt;/p&gt;" style="ellipse;whiteSpace=wrap;html=1;" vertex="1" parent="1">
          <mxGeometry x="1910" y="775" width="110" height="50" as="geometry" />
        </mxCell>
        <mxCell id="hl1yCXHX7fQOaKHVeMeW-48" style="rounded=0;orthogonalLoop=1;jettySize=auto;html=1;entryX=0;entryY=0.5;entryDx=0;entryDy=0;dashed=1;" edge="1" parent="1" source="hl1yCXHX7fQOaKHVeMeW-27" target="hl1yCXHX7fQOaKHVeMeW-34">
          <mxGeometry relative="1" as="geometry" />
        </mxCell>
        <mxCell id="hl1yCXHX7fQOaKHVeMeW-49" value="&amp;lt;&amp;lt;extend&amp;gt;&amp;gt;" style="edgeLabel;html=1;align=center;verticalAlign=middle;resizable=0;points=[];" vertex="1" connectable="0" parent="hl1yCXHX7fQOaKHVeMeW-48">
          <mxGeometry x="-0.0367" y="-1" relative="1" as="geometry">
            <mxPoint as="offset" />
          </mxGeometry>
        </mxCell>
        <mxCell id="hl1yCXHX7fQOaKHVeMeW-27" value="&lt;p style=&quot;white-space-collapse: preserve;&quot; dir=&quot;auto&quot;&gt;Manage regions&lt;/p&gt;" style="ellipse;whiteSpace=wrap;html=1;" vertex="1" parent="1">
          <mxGeometry x="1500" y="586.25" width="110" height="50" as="geometry" />
        </mxCell>
        <mxCell id="hl1yCXHX7fQOaKHVeMeW-30" value="&lt;p style=&quot;white-space-collapse: preserve;&quot; dir=&quot;auto&quot;&gt;View All&lt;/p&gt;" style="ellipse;whiteSpace=wrap;html=1;" vertex="1" parent="1">
          <mxGeometry x="1640" y="390" width="80" height="50" as="geometry" />
        </mxCell>
        <mxCell id="hl1yCXHX7fQOaKHVeMeW-32" value="&lt;p style=&quot;white-space-collapse: preserve;&quot; dir=&quot;auto&quot;&gt;Filter&lt;/p&gt;" style="ellipse;whiteSpace=wrap;html=1;" vertex="1" parent="1">
          <mxGeometry x="1750" y="425" width="80" height="50" as="geometry" />
        </mxCell>
        <mxCell id="hl1yCXHX7fQOaKHVeMeW-33" value="&lt;p style=&quot;white-space-collapse: preserve;&quot; dir=&quot;auto&quot;&gt;Add&lt;/p&gt;" style="ellipse;whiteSpace=wrap;html=1;" vertex="1" parent="1">
          <mxGeometry x="1765" y="520" width="80" height="50" as="geometry" />
        </mxCell>
        <mxCell id="hl1yCXHX7fQOaKHVeMeW-34" value="&lt;p style=&quot;white-space-collapse: preserve;&quot; dir=&quot;auto&quot;&gt;Edit&lt;/p&gt;" style="ellipse;whiteSpace=wrap;html=1;" vertex="1" parent="1">
          <mxGeometry x="1770" y="580" width="80" height="50" as="geometry" />
        </mxCell>
        <mxCell id="hl1yCXHX7fQOaKHVeMeW-61" style="rounded=0;orthogonalLoop=1;jettySize=auto;html=1;entryX=0.5;entryY=0;entryDx=0;entryDy=0;endArrow=none;endFill=0;" edge="1" parent="1" source="hl1yCXHX7fQOaKHVeMeW-35" target="hl1yCXHX7fQOaKHVeMeW-26">
          <mxGeometry relative="1" as="geometry" />
        </mxCell>
        <mxCell id="hl1yCXHX7fQOaKHVeMeW-35" value="&lt;p style=&quot;white-space-collapse: preserve;&quot; dir=&quot;auto&quot;&gt;Disable&lt;/p&gt;" style="ellipse;whiteSpace=wrap;html=1;" vertex="1" parent="1">
          <mxGeometry x="1785" y="675" width="80" height="50" as="geometry" />
        </mxCell>
        <mxCell id="hl1yCXHX7fQOaKHVeMeW-46" style="rounded=0;orthogonalLoop=1;jettySize=auto;html=1;entryX=0;entryY=0.5;entryDx=0;entryDy=0;endArrow=none;endFill=0;" edge="1" parent="1" source="hl1yCXHX7fQOaKHVeMeW-36" target="hl1yCXHX7fQOaKHVeMeW-34">
          <mxGeometry relative="1" as="geometry" />
        </mxCell>
        <mxCell id="hl1yCXHX7fQOaKHVeMeW-47" style="rounded=0;orthogonalLoop=1;jettySize=auto;html=1;entryX=0;entryY=0.5;entryDx=0;entryDy=0;endArrow=none;endFill=0;" edge="1" parent="1" source="hl1yCXHX7fQOaKHVeMeW-36" target="hl1yCXHX7fQOaKHVeMeW-35">
          <mxGeometry relative="1" as="geometry" />
        </mxCell>
        <mxCell id="hl1yCXHX7fQOaKHVeMeW-36" value="&lt;p style=&quot;white-space-collapse: preserve;&quot; dir=&quot;auto&quot;&gt;View&lt;/p&gt;" style="ellipse;whiteSpace=wrap;html=1;" vertex="1" parent="1">
          <mxGeometry x="1640" y="790" width="80" height="50" as="geometry" />
        </mxCell>
        <mxCell id="hl1yCXHX7fQOaKHVeMeW-37" style="rounded=0;orthogonalLoop=1;jettySize=auto;html=1;entryX=0.042;entryY=0.662;entryDx=0;entryDy=0;exitX=1;exitY=0.5;exitDx=0;exitDy=0;entryPerimeter=0;" edge="1" parent="1" source="hl1yCXHX7fQOaKHVeMeW-27" target="hl1yCXHX7fQOaKHVeMeW-30">
          <mxGeometry relative="1" as="geometry">
            <mxPoint x="1540" y="486.25" as="sourcePoint" />
            <mxPoint x="1690" y="486.25" as="targetPoint" />
          </mxGeometry>
        </mxCell>
        <mxCell id="hl1yCXHX7fQOaKHVeMeW-38" value="&lt;p style=&quot;white-space: pre-wrap;&quot; dir=&quot;auto&quot;&gt;&lt;br&gt;&lt;/p&gt;" style="edgeLabel;html=1;align=center;verticalAlign=middle;resizable=0;points=[];" vertex="1" connectable="0" parent="hl1yCXHX7fQOaKHVeMeW-37">
          <mxGeometry x="-0.1048" y="3" relative="1" as="geometry">
            <mxPoint as="offset" />
          </mxGeometry>
        </mxCell>
        <mxCell id="hl1yCXHX7fQOaKHVeMeW-39" value="&amp;lt;&amp;lt;include&amp;gt;&amp;gt;" style="edgeLabel;html=1;align=center;verticalAlign=middle;resizable=0;points=[];" vertex="1" connectable="0" parent="hl1yCXHX7fQOaKHVeMeW-37">
          <mxGeometry x="-0.2819" y="-1" relative="1" as="geometry">
            <mxPoint y="-59" as="offset" />
          </mxGeometry>
        </mxCell>
        <mxCell id="hl1yCXHX7fQOaKHVeMeW-41" style="rounded=0;orthogonalLoop=1;jettySize=auto;html=1;entryX=0;entryY=0.5;entryDx=0;entryDy=0;exitX=1;exitY=0.5;exitDx=0;exitDy=0;endArrow=none;endFill=0;" edge="1" parent="1" source="hl1yCXHX7fQOaKHVeMeW-27" target="hl1yCXHX7fQOaKHVeMeW-33">
          <mxGeometry relative="1" as="geometry">
            <mxPoint x="1620" y="621.25" as="sourcePoint" />
            <mxPoint x="1673" y="467.25" as="targetPoint" />
          </mxGeometry>
        </mxCell>
        <mxCell id="hl1yCXHX7fQOaKHVeMeW-42" value="&lt;p style=&quot;white-space: pre-wrap;&quot; dir=&quot;auto&quot;&gt;&lt;br&gt;&lt;/p&gt;" style="edgeLabel;html=1;align=center;verticalAlign=middle;resizable=0;points=[];" vertex="1" connectable="0" parent="hl1yCXHX7fQOaKHVeMeW-41">
          <mxGeometry x="-0.1048" y="3" relative="1" as="geometry">
            <mxPoint as="offset" />
          </mxGeometry>
        </mxCell>
        <mxCell id="hl1yCXHX7fQOaKHVeMeW-44" style="rounded=0;orthogonalLoop=1;jettySize=auto;html=1;exitX=1;exitY=0.5;exitDx=0;exitDy=0;endArrow=none;endFill=0;entryX=0.5;entryY=0;entryDx=0;entryDy=0;" edge="1" parent="1" source="hl1yCXHX7fQOaKHVeMeW-27" target="hl1yCXHX7fQOaKHVeMeW-36">
          <mxGeometry relative="1" as="geometry">
            <mxPoint x="1620" y="621.25" as="sourcePoint" />
            <mxPoint x="1685" y="736.25" as="targetPoint" />
          </mxGeometry>
        </mxCell>
        <mxCell id="hl1yCXHX7fQOaKHVeMeW-45" value="&lt;p style=&quot;white-space: pre-wrap;&quot; dir=&quot;auto&quot;&gt;&lt;br&gt;&lt;/p&gt;" style="edgeLabel;html=1;align=center;verticalAlign=middle;resizable=0;points=[];" vertex="1" connectable="0" parent="hl1yCXHX7fQOaKHVeMeW-44">
          <mxGeometry x="-0.1048" y="3" relative="1" as="geometry">
            <mxPoint as="offset" />
          </mxGeometry>
        </mxCell>
        <mxCell id="hl1yCXHX7fQOaKHVeMeW-50" style="rounded=0;orthogonalLoop=1;jettySize=auto;html=1;entryX=0;entryY=0.5;entryDx=0;entryDy=0;dashed=1;exitX=0.934;exitY=0.72;exitDx=0;exitDy=0;exitPerimeter=0;" edge="1" parent="1" source="hl1yCXHX7fQOaKHVeMeW-27" target="hl1yCXHX7fQOaKHVeMeW-35">
          <mxGeometry relative="1" as="geometry">
            <mxPoint x="1616" y="631.25" as="sourcePoint" />
            <mxPoint x="1770" y="661.25" as="targetPoint" />
          </mxGeometry>
        </mxCell>
        <mxCell id="hl1yCXHX7fQOaKHVeMeW-51" value="&amp;lt;&amp;lt;extend&amp;gt;&amp;gt;" style="edgeLabel;html=1;align=center;verticalAlign=middle;resizable=0;points=[];" vertex="1" connectable="0" parent="hl1yCXHX7fQOaKHVeMeW-50">
          <mxGeometry x="-0.0367" y="-1" relative="1" as="geometry">
            <mxPoint as="offset" />
          </mxGeometry>
        </mxCell>
        <mxCell id="hl1yCXHX7fQOaKHVeMeW-52" style="rounded=0;orthogonalLoop=1;jettySize=auto;html=1;entryX=0.025;entryY=0.628;entryDx=0;entryDy=0;dashed=1;exitX=1;exitY=0.5;exitDx=0;exitDy=0;entryPerimeter=0;" edge="1" parent="1" source="hl1yCXHX7fQOaKHVeMeW-27" target="hl1yCXHX7fQOaKHVeMeW-32">
          <mxGeometry relative="1" as="geometry">
            <mxPoint x="1613" y="632.25" as="sourcePoint" />
            <mxPoint x="1780" y="731.25" as="targetPoint" />
          </mxGeometry>
        </mxCell>
        <mxCell id="hl1yCXHX7fQOaKHVeMeW-53" value="&amp;lt;&amp;lt;extend&amp;gt;&amp;gt;" style="edgeLabel;html=1;align=center;verticalAlign=middle;resizable=0;points=[];" vertex="1" connectable="0" parent="hl1yCXHX7fQOaKHVeMeW-52">
          <mxGeometry x="-0.0367" y="-1" relative="1" as="geometry">
            <mxPoint as="offset" />
          </mxGeometry>
        </mxCell>
        <mxCell id="hl1yCXHX7fQOaKHVeMeW-57" style="rounded=0;orthogonalLoop=1;jettySize=auto;html=1;entryX=0.057;entryY=0.382;entryDx=0;entryDy=0;exitX=1;exitY=0.5;exitDx=0;exitDy=0;entryPerimeter=0;" edge="1" parent="1" source="hl1yCXHX7fQOaKHVeMeW-36" target="hl1yCXHX7fQOaKHVeMeW-26">
          <mxGeometry relative="1" as="geometry">
            <mxPoint x="1865" y="748" as="sourcePoint" />
            <mxPoint x="1898" y="560" as="targetPoint" />
          </mxGeometry>
        </mxCell>
        <mxCell id="hl1yCXHX7fQOaKHVeMeW-58" value="&lt;p style=&quot;white-space: pre-wrap;&quot; dir=&quot;auto&quot;&gt;&lt;br&gt;&lt;/p&gt;" style="edgeLabel;html=1;align=center;verticalAlign=middle;resizable=0;points=[];" vertex="1" connectable="0" parent="hl1yCXHX7fQOaKHVeMeW-57">
          <mxGeometry x="-0.1048" y="3" relative="1" as="geometry">
            <mxPoint as="offset" />
          </mxGeometry>
        </mxCell>
        <mxCell id="hl1yCXHX7fQOaKHVeMeW-60" value="&amp;lt;&amp;lt;include&amp;gt;&amp;gt;" style="edgeLabel;html=1;align=center;verticalAlign=middle;resizable=0;points=[];" vertex="1" connectable="0" parent="hl1yCXHX7fQOaKHVeMeW-57">
          <mxGeometry x="-0.0135" y="-3" relative="1" as="geometry">
            <mxPoint x="-5" y="-10" as="offset" />
          </mxGeometry>
        </mxCell>
        <mxCell id="hl1yCXHX7fQOaKHVeMeW-62" style="rounded=0;orthogonalLoop=1;jettySize=auto;html=1;entryX=0.703;entryY=0.051;entryDx=0;entryDy=0;entryPerimeter=0;endArrow=none;endFill=0;" edge="1" parent="1" source="hl1yCXHX7fQOaKHVeMeW-34" target="hl1yCXHX7fQOaKHVeMeW-26">
          <mxGeometry relative="1" as="geometry" />
        </mxCell>
      </root>
    </mxGraphModel>
  </diagram>
</mxfile>
